<?xml version="1.0" encoding="utf-8"?>
<!-- Generator: Adobe Illustrator 21.0.1, SVG Export Plug-In . SVG Version: 6.00 Build 0)  -->
<svg version="1.1" id="Layer_1" xmlns="http://www.w3.org/2000/svg" xmlns:xlink="http://www.w3.org/1999/xlink" x="0px" y="0px"
	 viewBox="0 0 24 22" style="enable-background:new 0 0 24 22;" xml:space="preserve">
<style type="text/css">
	.st0{fill:#FCBC16;}
</style>
<g>
	<path class="st0" d="M5.6037092,11.9110727H16.136364c0.5018921,0,0.90909-0.4104509,0.90909-0.9168653
		c0-0.5061893-0.407198-0.9168663-0.90909-0.9168663H5.6037092l1.1753802-1.1855087
		c0.3551517-0.3578806,0.3551517-0.9383335,0-1.2965231c-0.3547716-0.3581119-0.930377-0.3581119-1.2854538,0l-2.7269697,2.7502909
		c-0.0213623,0.0215473-0.0411365,0.0436287-0.0600758,0.0668545c-0.0044689,0.0056543-0.0086374,0.0116911-0.0130301,0.0176516
		c-0.013941,0.0175714-0.0275769,0.0355282-0.0400012,0.0543213c-0.0035605,0.0056543-0.006515,0.0113087-0.0099993,0.016963
		c-0.012727,0.0197124-0.024925,0.0394268-0.0358326,0.0602846c-0.0020461,0.0038958-0.0038633,0.0084057-0.0062122,0.0125303
		c-0.0112891,0.0223866-0.0224998,0.0450811-0.0319717,0.0686903C2.5683317,10.6455698,2.5674994,10.64855,2.566288,10.6515274
		c-0.0097749,0.0247555-0.0189419,0.0498934-0.0266659,0.075489c-0.0011375,0.0032873-0.0017433,0.0065708-0.0026541,0.0098562
		c-0.0073473,0.0253668-0.0138624,0.0507355-0.0192423,0.0770159c-0.0014381,0.0077953-0.0020437,0.0155106-0.0034842,0.0236092
		c-0.0038631,0.0214729-0.0074236,0.0432463-0.0095458,0.0653276C2.5015144,10.9330063,2.5,10.9634142,2.5,10.9942074
		c0,0.030715,0.0015144,0.0611258,0.0046957,0.09161c0.0021222,0.0223866,0.0059855,0.0441628,0.0095458,0.0659389
		c0.0014405,0.0077896,0.0020461,0.0155077,0.0034842,0.0229969c0.0053799,0.0262833,0.0118949,0.0519552,0.0192423,0.0775509
		c0.0009108,0.0030565,0.0015166,0.0060368,0.0024252,0.009017c0.0079529,0.0259027,0.0171199,0.0513439,0.0268948,0.0760994
		c0.0012114,0.0026751,0.0020437,0.0056543,0.0032551,0.0083294c0.0094719,0.0236082,0.0206826,0.0465288,0.0322747,0.0689154
		c0.0020459,0.0042019,0.0038631,0.0081005,0.0059092,0.0123024c0.0109076,0.0208597,0.0233345,0.0408754,0.0360594,0.0605898
		c0.0032575,0.0053463,0.006212,0.0110006,0.0097725,0.0163517c0.0124242,0.0188713,0.0263653,0.0367508,0.0400012,0.0546303
		c0.0043926,0.0059576,0.0085611,0.0119944,0.0130301,0.0176487c0.0189393,0.0229979,0.0387135,0.0453072,0.0597727,0.0665493
		l2.7272727,2.750289c0.1774993,0.1790962,0.4101515,0.2686434,0.6427279,0.2686434
		c0.232574,0,0.4652267-0.0895472,0.6427259-0.2686434c0.3551517-0.3578796,0.3551517-0.9383335,0-1.296524L5.6037092,11.9110727z"
		/>
	<path class="st0" d="M15.0636349,3.4941685c-2.4813633,0-4.790226,1.2415888-6.1760597,3.3209646
		c-0.2799244,0.4202304-0.1692429,0.989985,0.2474241,1.2726088c0.4169693,0.2823935,0.9815903,0.1707678,1.261817-0.2497702
		c1.0472736-1.5716586,2.7918186-2.5100718,4.6668186-2.5100718c3.0977268,0,5.6181812,2.5420117,5.6181812,5.6663074
		c0,3.1245241-2.5204544,5.6662292-5.6181812,5.6662292c-1.8693933,0-3.6112118-0.9342079-4.6593933-2.4986877
		c-0.2811365-0.4196959-0.8460608-0.5301027-1.2621212-0.246562s-0.5256062,0.8536043-0.2444696,1.2729177
		c1.3867416,2.0701275,3.6917419,3.3060646,6.1659842,3.3060646c4.1003799,0,7.4363651-3.3642874,7.4363651-7.4999619
		C22.5,6.8587608,19.1640148,3.4941685,15.0636349,3.4941685L15.0636349,3.4941685z"/>
</g>
</svg>
